<?xml version="1.0" encoding="UTF-8" standalone="no"?>
<!DOCTYPE svg PUBLIC "-//W3C//DTD SVG 1.1//EN"
 "http://www.w3.org/Graphics/SVG/1.1/DTD/svg11.dtd">
<!-- Generated by graphviz version 2.44.0 (0)
 -->
<!-- Pages: 1 -->
<svg width="608pt" height="1296pt"
 viewBox="0.00 0.00 608.00 1296.00" xmlns="http://www.w3.org/2000/svg" xmlns:xlink="http://www.w3.org/1999/xlink">
<g id="graph0" class="graph" transform="scale(1 1) rotate(0) translate(4 1292)">
<polygon fill="white" stroke="transparent" points="-4,4 -4,-1292 604,-1292 604,4 -4,4"/>
<text text-anchor="middle" x="300" y="-1272.8" font-family="Times-Roman" font-size="14.00">T1 tree: p90 (argmax=19, 792 nodes, 20 shown)</text>
<!-- 0 -->
<g id="node1" class="node">
<title>0</title>
<text text-anchor="start" x="257.5" y="-1255" font-family="Helvetica" font-size="10.00">Val: +0.82</text>
<image xlink:href="/home/hl4291/chess_analysis/outputs/figures/minply15_maxply75/trees/t1_tree_p90_assets/node_0.png" width="67px" height="67px" preserveAspectRatio="xMinYMin meet" x="246.5" y="-1248"/>
</g>
<!-- 9 -->
<g id="node2" class="node">
<title>9</title>
<text text-anchor="start" x="15" y="-1124" font-family="Helvetica" font-size="10.00">Val: &#45;0.13</text>
<image xlink:href="/home/hl4291/chess_analysis/outputs/figures/minply15_maxply75/trees/t1_tree_p90_assets/node_9.png" width="67px" height="67px" preserveAspectRatio="xMinYMin meet" x="2.5" y="-1117"/>
</g>
<!-- 0&#45;&gt;9 -->
<g id="edge1" class="edge">
<title>0&#45;&gt;9</title>
<path fill="none" stroke="black" d="M243.63,-1209.7C202.06,-1195.66 132.49,-1169.19 79.5,-1134 79.41,-1133.94 79.32,-1133.88 79.24,-1133.82"/>
<polygon fill="black" stroke="black" points="81.28,-1130.98 71.14,-1127.9 77.15,-1136.63 81.28,-1130.98"/>
<text text-anchor="middle" x="137" y="-1154.6" font-family="Times-Roman" font-size="8.00">b3c3</text>
</g>
<!-- 23 -->
<g id="node5" class="node">
<title>23</title>
<text text-anchor="start" x="104" y="-1124" font-family="Helvetica" font-size="10.00">Val: &#45;0.14</text>
<image xlink:href="/home/hl4291/chess_analysis/outputs/figures/minply15_maxply75/trees/t1_tree_p90_assets/node_23.png" width="67px" height="67px" preserveAspectRatio="xMinYMin meet" x="91.5" y="-1117"/>
</g>
<!-- 0&#45;&gt;23 -->
<g id="edge4" class="edge">
<title>0&#45;&gt;23</title>
<path fill="none" stroke="black" d="M243.8,-1194.43C221.68,-1177.62 192.94,-1155.15 168.5,-1134 168.25,-1133.78 167.99,-1133.56 167.74,-1133.34"/>
<polygon fill="black" stroke="black" points="170.05,-1130.71 160.25,-1126.67 165.39,-1135.94 170.05,-1130.71"/>
<text text-anchor="middle" x="208" y="-1154.6" font-family="Times-Roman" font-size="8.00">f1e2</text>
</g>
<!-- 28 -->
<g id="node6" class="node">
<title>28</title>
<text text-anchor="start" x="193" y="-1124" font-family="Helvetica" font-size="10.00">Val: &#45;0.96</text>
<image xlink:href="/home/hl4291/chess_analysis/outputs/figures/minply15_maxply75/trees/t1_tree_p90_assets/node_28.png" width="67px" height="67px" preserveAspectRatio="xMinYMin meet" x="180.5" y="-1117"/>
</g>
<!-- 0&#45;&gt;28 -->
<g id="edge5" class="edge">
<title>0&#45;&gt;28</title>
<path fill="none" stroke="black" d="M257.89,-1178.76C252.13,-1167.51 245.85,-1155.23 239.87,-1143.55"/>
<polygon fill="black" stroke="black" points="242.83,-1141.64 235.16,-1134.33 236.6,-1144.83 242.83,-1141.64"/>
<text text-anchor="middle" x="259.5" y="-1154.6" font-family="Times-Roman" font-size="8.00">e1d1</text>
</g>
<!-- 31 -->
<g id="node7" class="node">
<title>31</title>
<text text-anchor="start" x="282" y="-1124" font-family="Helvetica" font-size="10.00">Val: &#45;0.14</text>
<image xlink:href="/home/hl4291/chess_analysis/outputs/figures/minply15_maxply75/trees/t1_tree_p90_assets/node_31.png" width="67px" height="67px" preserveAspectRatio="xMinYMin meet" x="269.5" y="-1117"/>
</g>
<!-- 0&#45;&gt;31 -->
<g id="edge6" class="edge">
<title>0&#45;&gt;31</title>
<path fill="none" stroke="black" d="M287.03,-1178.76C289,-1167.74 291.14,-1155.72 293.19,-1144.24"/>
<polygon fill="black" stroke="black" points="296.64,-1144.79 294.95,-1134.33 289.75,-1143.56 296.64,-1144.79"/>
<text text-anchor="middle" x="303.5" y="-1154.6" font-family="Times-Roman" font-size="8.00">b1d1</text>
</g>
<!-- 35 -->
<g id="node8" class="node">
<title>35</title>
<text text-anchor="start" x="371" y="-1124" font-family="Helvetica" font-size="10.00">Val: &#45;0.15</text>
<image xlink:href="/home/hl4291/chess_analysis/outputs/figures/minply15_maxply75/trees/t1_tree_p90_assets/node_35.png" width="67px" height="67px" preserveAspectRatio="xMinYMin meet" x="358.5" y="-1117"/>
</g>
<!-- 0&#45;&gt;35 -->
<g id="edge7" class="edge">
<title>0&#45;&gt;35</title>
<path fill="none" stroke="black" d="M315.25,-1179.83C325.95,-1167.49 337.81,-1153.84 348.91,-1141.05"/>
<polygon fill="black" stroke="black" points="351.8,-1143.07 355.71,-1133.22 346.51,-1138.48 351.8,-1143.07"/>
<text text-anchor="middle" x="349.5" y="-1154.6" font-family="Times-Roman" font-size="8.00">c4c5</text>
</g>
<!-- 36 -->
<g id="node9" class="node">
<title>36</title>
<text text-anchor="start" x="460" y="-1124" font-family="Helvetica" font-size="10.00">Val: &#45;0.22</text>
<image xlink:href="/home/hl4291/chess_analysis/outputs/figures/minply15_maxply75/trees/t1_tree_p90_assets/node_36.png" width="67px" height="67px" preserveAspectRatio="xMinYMin meet" x="447.5" y="-1117"/>
</g>
<!-- 0&#45;&gt;36 -->
<g id="edge8" class="edge">
<title>0&#45;&gt;36</title>
<path fill="none" stroke="black" d="M315.04,-1204.58C347.92,-1188.64 397.46,-1162.71 436.5,-1134 436.68,-1133.87 436.85,-1133.74 437.03,-1133.61"/>
<polygon fill="black" stroke="black" points="439.22,-1136.34 444.9,-1127.39 434.88,-1130.85 439.22,-1136.34"/>
<text text-anchor="middle" x="419.5" y="-1154.6" font-family="Times-Roman" font-size="8.00">h2h3</text>
</g>
<!-- 270 -->
<g id="node3" class="node">
<title>270</title>
<text text-anchor="start" x="499" y="-338" font-family="Helvetica" font-size="10.00">Val: &#45;0.10</text>
<image xlink:href="/home/hl4291/chess_analysis/outputs/figures/minply15_maxply75/trees/t1_tree_p90_assets/node_270.png" width="67px" height="67px" preserveAspectRatio="xMinYMin meet" x="486.5" y="-331"/>
</g>
<!-- 311 -->
<g id="node13" class="node">
<title>311</title>
<text text-anchor="start" x="497.5" y="-207" font-family="Helvetica" font-size="10.00">Val: +0.00</text>
<image xlink:href="/home/hl4291/chess_analysis/outputs/figures/minply15_maxply75/trees/t1_tree_p90_assets/node_311.png" width="67px" height="67px" preserveAspectRatio="xMinYMin meet" x="486.5" y="-200"/>
</g>
<!-- 270&#45;&gt;311 -->
<g id="edge12" class="edge">
<title>270&#45;&gt;311</title>
<path fill="none" stroke="black" d="M519.5,-261.76C519.5,-250.85 519.5,-238.96 519.5,-227.59"/>
<polygon fill="black" stroke="black" points="523,-227.33 519.5,-217.33 516,-227.33 523,-227.33"/>
<text text-anchor="middle" x="529.5" y="-237.6" font-family="Times-Roman" font-size="8.00">c7c6</text>
</g>
<!-- 146 -->
<g id="node4" class="node">
<title>146</title>
<text text-anchor="start" x="497.5" y="-731" font-family="Helvetica" font-size="10.00">Val: +0.19</text>
<image xlink:href="/home/hl4291/chess_analysis/outputs/figures/minply15_maxply75/trees/t1_tree_p90_assets/node_146.png" width="67px" height="67px" preserveAspectRatio="xMinYMin meet" x="486.5" y="-724"/>
</g>
<!-- 170 -->
<g id="node12" class="node">
<title>170</title>
<text text-anchor="start" x="499" y="-600" font-family="Helvetica" font-size="10.00">Val: &#45;0.16</text>
<image xlink:href="/home/hl4291/chess_analysis/outputs/figures/minply15_maxply75/trees/t1_tree_p90_assets/node_170.png" width="67px" height="67px" preserveAspectRatio="xMinYMin meet" x="486.5" y="-593"/>
</g>
<!-- 146&#45;&gt;170 -->
<g id="edge11" class="edge">
<title>146&#45;&gt;170</title>
<path fill="none" stroke="black" d="M519.5,-654.76C519.5,-643.85 519.5,-631.96 519.5,-620.59"/>
<polygon fill="black" stroke="black" points="523,-620.33 519.5,-610.33 516,-620.33 523,-620.33"/>
<text text-anchor="middle" x="530.5" y="-630.6" font-family="Times-Roman" font-size="8.00">b3d5</text>
</g>
<!-- 501 -->
<g id="node19" class="node">
<title>501</title>
<text text-anchor="start" x="191.5" y="-993" font-family="Helvetica" font-size="10.00">Val: +0.93</text>
<image xlink:href="/home/hl4291/chess_analysis/outputs/figures/minply15_maxply75/trees/t1_tree_p90_assets/node_501.png" width="67px" height="67px" preserveAspectRatio="xMinYMin meet" x="180.5" y="-986"/>
</g>
<!-- 28&#45;&gt;501 -->
<g id="edge18" class="edge">
<title>28&#45;&gt;501</title>
<path fill="none" stroke="black" d="M213.5,-1047.76C213.5,-1036.85 213.5,-1024.96 213.5,-1013.59"/>
<polygon fill="black" stroke="black" points="217,-1013.33 213.5,-1003.33 210,-1013.33 217,-1013.33"/>
<text text-anchor="middle" x="224.5" y="-1023.6" font-family="Times-Roman" font-size="8.00">e5g4</text>
</g>
<!-- 41 -->
<g id="node11" class="node">
<title>41</title>
<text text-anchor="start" x="458.5" y="-993" font-family="Helvetica" font-size="10.00">Val: +0.20</text>
<image xlink:href="/home/hl4291/chess_analysis/outputs/figures/minply15_maxply75/trees/t1_tree_p90_assets/node_41.png" width="67px" height="67px" preserveAspectRatio="xMinYMin meet" x="447.5" y="-986"/>
</g>
<!-- 36&#45;&gt;41 -->
<g id="edge10" class="edge">
<title>36&#45;&gt;41</title>
<path fill="none" stroke="black" d="M480.5,-1047.76C480.5,-1036.85 480.5,-1024.96 480.5,-1013.59"/>
<polygon fill="black" stroke="black" points="484,-1013.33 480.5,-1003.33 477,-1013.33 484,-1013.33"/>
<text text-anchor="middle" x="491" y="-1023.6" font-family="Times-Roman" font-size="8.00">c8g8</text>
</g>
<!-- 424 -->
<g id="node10" class="node">
<title>424</title>
<text text-anchor="start" x="410" y="-731" font-family="Helvetica" font-size="10.00">Val: &#45;0.04</text>
<image xlink:href="/home/hl4291/chess_analysis/outputs/figures/minply15_maxply75/trees/t1_tree_p90_assets/node_424.png" width="67px" height="67px" preserveAspectRatio="xMinYMin meet" x="397.5" y="-724"/>
</g>
<!-- 511 -->
<g id="node20" class="node">
<title>511</title>
<text text-anchor="start" x="408.5" y="-600" font-family="Helvetica" font-size="10.00">Val: +0.04</text>
<image xlink:href="/home/hl4291/chess_analysis/outputs/figures/minply15_maxply75/trees/t1_tree_p90_assets/node_511.png" width="67px" height="67px" preserveAspectRatio="xMinYMin meet" x="397.5" y="-593"/>
</g>
<!-- 424&#45;&gt;511 -->
<g id="edge19" class="edge">
<title>424&#45;&gt;511</title>
<path fill="none" stroke="black" d="M430.5,-654.76C430.5,-643.85 430.5,-631.96 430.5,-620.59"/>
<polygon fill="black" stroke="black" points="434,-620.33 430.5,-610.33 427,-620.33 434,-620.33"/>
<text text-anchor="middle" x="441.5" y="-630.6" font-family="Times-Roman" font-size="8.00">b3b6</text>
</g>
<!-- 96 -->
<g id="node16" class="node">
<title>96</title>
<text text-anchor="start" x="410" y="-862" font-family="Helvetica" font-size="10.00">Val: &#45;0.09</text>
<image xlink:href="/home/hl4291/chess_analysis/outputs/figures/minply15_maxply75/trees/t1_tree_p90_assets/node_96.png" width="67px" height="67px" preserveAspectRatio="xMinYMin meet" x="397.5" y="-855"/>
</g>
<!-- 41&#45;&gt;96 -->
<g id="edge15" class="edge">
<title>41&#45;&gt;96</title>
<path fill="none" stroke="black" d="M464.13,-916.76C459.81,-905.62 455.1,-893.48 450.61,-881.9"/>
<polygon fill="black" stroke="black" points="453.79,-880.39 446.91,-872.33 447.26,-882.92 453.79,-880.39"/>
<text text-anchor="middle" x="466" y="-892.6" font-family="Times-Roman" font-size="8.00">f2b6</text>
</g>
<!-- 117 -->
<g id="node18" class="node">
<title>117</title>
<text text-anchor="start" x="499" y="-862" font-family="Helvetica" font-size="10.00">Val: &#45;0.21</text>
<image xlink:href="/home/hl4291/chess_analysis/outputs/figures/minply15_maxply75/trees/t1_tree_p90_assets/node_117.png" width="67px" height="67px" preserveAspectRatio="xMinYMin meet" x="486.5" y="-855"/>
</g>
<!-- 41&#45;&gt;117 -->
<g id="edge17" class="edge">
<title>41&#45;&gt;117</title>
<path fill="none" stroke="black" d="M493.27,-916.76C496.6,-905.74 500.24,-893.72 503.71,-882.24"/>
<polygon fill="black" stroke="black" points="507.16,-882.92 506.7,-872.33 500.46,-880.89 507.16,-882.92"/>
<text text-anchor="middle" x="510.5" y="-892.6" font-family="Times-Roman" font-size="8.00">c4c5</text>
</g>
<!-- 230 -->
<g id="node17" class="node">
<title>230</title>
<text text-anchor="start" x="497.5" y="-469" font-family="Helvetica" font-size="10.00">Val: +0.12</text>
<image xlink:href="/home/hl4291/chess_analysis/outputs/figures/minply15_maxply75/trees/t1_tree_p90_assets/node_230.png" width="67px" height="67px" preserveAspectRatio="xMinYMin meet" x="486.5" y="-462"/>
</g>
<!-- 170&#45;&gt;230 -->
<g id="edge16" class="edge">
<title>170&#45;&gt;230</title>
<path fill="none" stroke="black" d="M519.5,-523.76C519.5,-512.85 519.5,-500.96 519.5,-489.59"/>
<polygon fill="black" stroke="black" points="523,-489.33 519.5,-479.33 516,-489.33 523,-489.33"/>
<text text-anchor="middle" x="530.5" y="-499.6" font-family="Times-Roman" font-size="8.00">b7d5</text>
</g>
<!-- 333 -->
<g id="node14" class="node">
<title>333</title>
<text text-anchor="start" x="455" y="-76" font-family="Helvetica" font-size="10.00">Val: &#45;0.00</text>
<image xlink:href="/home/hl4291/chess_analysis/outputs/figures/minply15_maxply75/trees/t1_tree_p90_assets/node_333.png" width="67px" height="67px" preserveAspectRatio="xMinYMin meet" x="442.5" y="-69"/>
</g>
<!-- 311&#45;&gt;333 -->
<g id="edge13" class="edge">
<title>311&#45;&gt;333</title>
<path fill="none" stroke="black" d="M505.09,-130.76C501.29,-119.62 497.15,-107.48 493.2,-95.9"/>
<polygon fill="black" stroke="black" points="496.48,-94.67 489.94,-86.33 489.86,-96.93 496.48,-94.67"/>
<text text-anchor="middle" x="509" y="-106.6" font-family="Times-Roman" font-size="8.00">e1c1</text>
</g>
<!-- 339 -->
<g id="node15" class="node">
<title>339</title>
<text text-anchor="start" x="544" y="-76" font-family="Helvetica" font-size="10.00">Val: &#45;0.00</text>
<image xlink:href="/home/hl4291/chess_analysis/outputs/figures/minply15_maxply75/trees/t1_tree_p90_assets/node_339.png" width="67px" height="67px" preserveAspectRatio="xMinYMin meet" x="531.5" y="-69"/>
</g>
<!-- 311&#45;&gt;339 -->
<g id="edge14" class="edge">
<title>311&#45;&gt;339</title>
<path fill="none" stroke="black" d="M534.23,-130.76C538.12,-119.62 542.36,-107.48 546.4,-95.9"/>
<polygon fill="black" stroke="black" points="549.74,-96.93 549.73,-86.33 543.13,-94.62 549.74,-96.93"/>
<text text-anchor="middle" x="553" y="-106.6" font-family="Times-Roman" font-size="8.00">b1c1</text>
</g>
<!-- 96&#45;&gt;424 -->
<g id="edge9" class="edge">
<title>96&#45;&gt;424</title>
<path fill="none" stroke="black" d="M430.5,-785.76C430.5,-774.85 430.5,-762.96 430.5,-751.59"/>
<polygon fill="black" stroke="black" points="434,-751.33 430.5,-741.33 427,-751.33 434,-751.33"/>
<text text-anchor="middle" x="441" y="-761.6" font-family="Times-Roman" font-size="8.00">c7b6</text>
</g>
<!-- 230&#45;&gt;270 -->
<g id="edge2" class="edge">
<title>230&#45;&gt;270</title>
<path fill="none" stroke="black" d="M519.5,-392.76C519.5,-381.85 519.5,-369.96 519.5,-358.59"/>
<polygon fill="black" stroke="black" points="523,-358.33 519.5,-348.33 516,-358.33 523,-358.33"/>
<text text-anchor="middle" x="530" y="-368.6" font-family="Times-Roman" font-size="8.00">c5b6</text>
</g>
<!-- 117&#45;&gt;146 -->
<g id="edge3" class="edge">
<title>117&#45;&gt;146</title>
<path fill="none" stroke="black" d="M519.5,-785.76C519.5,-774.85 519.5,-762.96 519.5,-751.59"/>
<polygon fill="black" stroke="black" points="523,-751.33 519.5,-741.33 516,-751.33 523,-751.33"/>
<text text-anchor="middle" x="530.5" y="-761.6" font-family="Times-Roman" font-size="8.00">d7d5</text>
</g>
</g>
</svg>
