<?xml version="1.0" encoding="UTF-8" standalone="no"?>
<!DOCTYPE svg PUBLIC "-//W3C//DTD SVG 1.1//EN"
 "http://www.w3.org/Graphics/SVG/1.1/DTD/svg11.dtd">
<!-- Generated by graphviz version 2.44.0 (0)
 -->
<!-- Pages: 1 -->
<svg width="1425pt" height="1034pt"
 viewBox="0.00 0.00 1425.00 1034.00" xmlns="http://www.w3.org/2000/svg" xmlns:xlink="http://www.w3.org/1999/xlink">
<g id="graph0" class="graph" transform="scale(1 1) rotate(0) translate(4 1030)">
<polygon fill="white" stroke="transparent" points="-4,4 -4,-1030 1421,-1030 1421,4 -4,4"/>
<text text-anchor="middle" x="708.5" y="-1010.8" font-family="Times-Roman" font-size="14.00">cp_regen T1 tree: p90 (argmax=2, 1387 nodes, 40 shown)</text>
<!-- 0 -->
<g id="node1" class="node">
<title>0</title>
<text text-anchor="start" x="858.5" y="-993" font-family="Helvetica" font-size="10.00">Val: +0.94</text>
<image xlink:href="/home/hl4291/chess_analysis/outputs/figures/minply15_maxply75/variants/cp_regen/trees/cp_regen_t1_tree_p90_assets/node_0.png" width="67px" height="67px" preserveAspectRatio="xMinYMin meet" x="847.5" y="-986"/>
</g>
<!-- 18 -->
<g id="node2" class="node">
<title>18</title>
<text text-anchor="start" x="860" y="-862" font-family="Helvetica" font-size="10.00">Val: &#45;0.95</text>
<image xlink:href="/home/hl4291/chess_analysis/outputs/figures/minply15_maxply75/variants/cp_regen/trees/cp_regen_t1_tree_p90_assets/node_18.png" width="67px" height="67px" preserveAspectRatio="xMinYMin meet" x="847.5" y="-855"/>
</g>
<!-- 0&#45;&gt;18 -->
<g id="edge1" class="edge">
<title>0&#45;&gt;18</title>
<path fill="none" stroke="black" d="M880.5,-916.76C880.5,-905.85 880.5,-893.96 880.5,-882.59"/>
<polygon fill="black" stroke="black" points="884,-882.33 880.5,-872.33 877,-882.33 884,-882.33"/>
<text text-anchor="middle" x="891.5" y="-892.6" font-family="Times-Roman" font-size="8.00">e3g5</text>
</g>
<!-- 46 -->
<g id="node10" class="node">
<title>46</title>
<text text-anchor="start" x="858.5" y="-731" font-family="Helvetica" font-size="10.00">Val: +0.95</text>
<image xlink:href="/home/hl4291/chess_analysis/outputs/figures/minply15_maxply75/variants/cp_regen/trees/cp_regen_t1_tree_p90_assets/node_46.png" width="67px" height="67px" preserveAspectRatio="xMinYMin meet" x="847.5" y="-724"/>
</g>
<!-- 18&#45;&gt;46 -->
<g id="edge9" class="edge">
<title>18&#45;&gt;46</title>
<path fill="none" stroke="black" d="M880.5,-785.76C880.5,-774.85 880.5,-762.96 880.5,-751.59"/>
<polygon fill="black" stroke="black" points="884,-751.33 880.5,-741.33 877,-751.33 884,-751.33"/>
<text text-anchor="middle" x="891" y="-761.6" font-family="Times-Roman" font-size="8.00">d8c8</text>
</g>
<!-- 407 -->
<g id="node3" class="node">
<title>407</title>
<text text-anchor="start" x="1183" y="-76" font-family="Helvetica" font-size="10.00">Val: &#45;1.00</text>
<image xlink:href="/home/hl4291/chess_analysis/outputs/figures/minply15_maxply75/variants/cp_regen/trees/cp_regen_t1_tree_p90_assets/node_407.png" width="67px" height="67px" preserveAspectRatio="xMinYMin meet" x="1170.5" y="-69"/>
</g>
<!-- 280 -->
<g id="node4" class="node">
<title>280</title>
<text text-anchor="start" x="916" y="-76" font-family="Helvetica" font-size="10.00">Val: &#45;0.99</text>
<image xlink:href="/home/hl4291/chess_analysis/outputs/figures/minply15_maxply75/variants/cp_regen/trees/cp_regen_t1_tree_p90_assets/node_280.png" width="67px" height="67px" preserveAspectRatio="xMinYMin meet" x="903.5" y="-69"/>
</g>
<!-- 409 -->
<g id="node5" class="node">
<title>409</title>
<text text-anchor="start" x="1272" y="-76" font-family="Helvetica" font-size="10.00">Val: &#45;0.99</text>
<image xlink:href="/home/hl4291/chess_analysis/outputs/figures/minply15_maxply75/variants/cp_regen/trees/cp_regen_t1_tree_p90_assets/node_409.png" width="67px" height="67px" preserveAspectRatio="xMinYMin meet" x="1259.5" y="-69"/>
</g>
<!-- 279 -->
<g id="node6" class="node">
<title>279</title>
<text text-anchor="start" x="1005" y="-76" font-family="Helvetica" font-size="10.00">Val: &#45;1.00</text>
<image xlink:href="/home/hl4291/chess_analysis/outputs/figures/minply15_maxply75/variants/cp_regen/trees/cp_regen_t1_tree_p90_assets/node_279.png" width="67px" height="67px" preserveAspectRatio="xMinYMin meet" x="992.5" y="-69"/>
</g>
<!-- 284 -->
<g id="node7" class="node">
<title>284</title>
<text text-anchor="start" x="1094" y="-76" font-family="Helvetica" font-size="10.00">Val: &#45;0.99</text>
<image xlink:href="/home/hl4291/chess_analysis/outputs/figures/minply15_maxply75/variants/cp_regen/trees/cp_regen_t1_tree_p90_assets/node_284.png" width="67px" height="67px" preserveAspectRatio="xMinYMin meet" x="1081.5" y="-69"/>
</g>
<!-- 159 -->
<g id="node8" class="node">
<title>159</title>
<text text-anchor="start" x="738" y="-76" font-family="Helvetica" font-size="10.00">Val: &#45;0.97</text>
<image xlink:href="/home/hl4291/chess_analysis/outputs/figures/minply15_maxply75/variants/cp_regen/trees/cp_regen_t1_tree_p90_assets/node_159.png" width="67px" height="67px" preserveAspectRatio="xMinYMin meet" x="725.5" y="-69"/>
</g>
<!-- 161 -->
<g id="node9" class="node">
<title>161</title>
<text text-anchor="start" x="827" y="-76" font-family="Helvetica" font-size="10.00">Val: &#45;0.99</text>
<image xlink:href="/home/hl4291/chess_analysis/outputs/figures/minply15_maxply75/variants/cp_regen/trees/cp_regen_t1_tree_p90_assets/node_161.png" width="67px" height="67px" preserveAspectRatio="xMinYMin meet" x="814.5" y="-69"/>
</g>
<!-- 48 -->
<g id="node11" class="node">
<title>48</title>
<text text-anchor="start" x="287" y="-600" font-family="Helvetica" font-size="10.00">Val: &#45;0.95</text>
<image xlink:href="/home/hl4291/chess_analysis/outputs/figures/minply15_maxply75/variants/cp_regen/trees/cp_regen_t1_tree_p90_assets/node_48.png" width="67px" height="67px" preserveAspectRatio="xMinYMin meet" x="274.5" y="-593"/>
</g>
<!-- 46&#45;&gt;48 -->
<g id="edge10" class="edge">
<title>46&#45;&gt;48</title>
<path fill="none" stroke="black" d="M844.66,-688.93C744.87,-666.47 463.93,-603.22 353.19,-578.29"/>
<polygon fill="black" stroke="black" points="353.85,-574.85 343.33,-576.07 352.32,-581.68 353.85,-574.85"/>
<text text-anchor="middle" x="621" y="-630.6" font-family="Times-Roman" font-size="8.00">a6c5</text>
</g>
<!-- 49 -->
<g id="node12" class="node">
<title>49</title>
<text text-anchor="start" x="860" y="-600" font-family="Helvetica" font-size="10.00">Val: &#45;0.95</text>
<image xlink:href="/home/hl4291/chess_analysis/outputs/figures/minply15_maxply75/variants/cp_regen/trees/cp_regen_t1_tree_p90_assets/node_49.png" width="67px" height="67px" preserveAspectRatio="xMinYMin meet" x="847.5" y="-593"/>
</g>
<!-- 46&#45;&gt;49 -->
<g id="edge11" class="edge">
<title>46&#45;&gt;49</title>
<path fill="none" stroke="black" d="M880.5,-654.76C880.5,-643.85 880.5,-631.96 880.5,-620.59"/>
<polygon fill="black" stroke="black" points="884,-620.33 880.5,-610.33 877,-620.33 884,-620.33"/>
<text text-anchor="middle" x="890" y="-630.6" font-family="Times-Roman" font-size="8.00">f3b3</text>
</g>
<!-- 50 -->
<g id="node13" class="node">
<title>50</title>
<text text-anchor="start" x="961" y="-600" font-family="Helvetica" font-size="10.00">Val: &#45;0.97</text>
<image xlink:href="/home/hl4291/chess_analysis/outputs/figures/minply15_maxply75/variants/cp_regen/trees/cp_regen_t1_tree_p90_assets/node_50.png" width="67px" height="67px" preserveAspectRatio="xMinYMin meet" x="948.5" y="-593"/>
</g>
<!-- 46&#45;&gt;50 -->
<g id="edge12" class="edge">
<title>46&#45;&gt;50</title>
<path fill="none" stroke="black" d="M913.57,-654.76C922.64,-643.18 932.56,-630.5 941.95,-618.51"/>
<polygon fill="black" stroke="black" points="944.95,-620.37 948.35,-610.33 939.43,-616.05 944.95,-620.37"/>
<text text-anchor="middle" x="943" y="-630.6" font-family="Times-Roman" font-size="8.00">f1e1</text>
</g>
<!-- 51 -->
<g id="node14" class="node">
<title>51</title>
<text text-anchor="start" x="102.5" y="-469" font-family="Helvetica" font-size="10.00">Val: +0.95</text>
<image xlink:href="/home/hl4291/chess_analysis/outputs/figures/minply15_maxply75/variants/cp_regen/trees/cp_regen_t1_tree_p90_assets/node_51.png" width="67px" height="67px" preserveAspectRatio="xMinYMin meet" x="91.5" y="-462"/>
</g>
<!-- 48&#45;&gt;51 -->
<g id="edge13" class="edge">
<title>48&#45;&gt;51</title>
<path fill="none" stroke="black" d="M271.78,-540.82C242.18,-519.96 199.99,-490.21 168.34,-467.91"/>
<polygon fill="black" stroke="black" points="170.32,-465.02 160.13,-462.12 166.29,-470.74 170.32,-465.02"/>
<text text-anchor="middle" x="231.5" y="-499.6" font-family="Times-Roman" font-size="8.00">d7e8</text>
</g>
<!-- 52 -->
<g id="node15" class="node">
<title>52</title>
<text text-anchor="start" x="235.5" y="-469" font-family="Helvetica" font-size="10.00">Val: +0.95</text>
<image xlink:href="/home/hl4291/chess_analysis/outputs/figures/minply15_maxply75/variants/cp_regen/trees/cp_regen_t1_tree_p90_assets/node_52.png" width="67px" height="67px" preserveAspectRatio="xMinYMin meet" x="224.5" y="-462"/>
</g>
<!-- 48&#45;&gt;52 -->
<g id="edge14" class="edge">
<title>48&#45;&gt;52</title>
<path fill="none" stroke="black" d="M291.13,-523.76C286.81,-512.62 282.1,-500.48 277.61,-488.9"/>
<polygon fill="black" stroke="black" points="280.79,-487.39 273.91,-479.33 274.26,-489.92 280.79,-487.39"/>
<text text-anchor="middle" x="294" y="-499.6" font-family="Times-Roman" font-size="8.00">d7c7</text>
</g>
<!-- 53 -->
<g id="node16" class="node">
<title>53</title>
<text text-anchor="start" x="346.5" y="-469" font-family="Helvetica" font-size="10.00">Val: +0.95</text>
<image xlink:href="/home/hl4291/chess_analysis/outputs/figures/minply15_maxply75/variants/cp_regen/trees/cp_regen_t1_tree_p90_assets/node_53.png" width="67px" height="67px" preserveAspectRatio="xMinYMin meet" x="335.5" y="-462"/>
</g>
<!-- 48&#45;&gt;53 -->
<g id="edge15" class="edge">
<title>48&#45;&gt;53</title>
<path fill="none" stroke="black" d="M327.47,-523.76C332.79,-512.51 338.6,-500.23 344.12,-488.55"/>
<polygon fill="black" stroke="black" points="347.37,-489.87 348.48,-479.33 341.04,-486.88 347.37,-489.87"/>
<text text-anchor="middle" x="350.5" y="-499.6" font-family="Times-Roman" font-size="8.00">d7d6</text>
</g>
<!-- 55 -->
<g id="node18" class="node">
<title>55</title>
<text text-anchor="start" x="681.5" y="-469" font-family="Helvetica" font-size="10.00">Val: +0.95</text>
<image xlink:href="/home/hl4291/chess_analysis/outputs/figures/minply15_maxply75/variants/cp_regen/trees/cp_regen_t1_tree_p90_assets/node_55.png" width="67px" height="67px" preserveAspectRatio="xMinYMin meet" x="670.5" y="-462"/>
</g>
<!-- 49&#45;&gt;55 -->
<g id="edge17" class="edge">
<title>49&#45;&gt;55</title>
<path fill="none" stroke="black" d="M844.68,-539.89C816.61,-519.44 777.43,-490.88 747.46,-469.04"/>
<polygon fill="black" stroke="black" points="749.41,-466.13 739.27,-463.07 745.29,-471.78 749.41,-466.13"/>
<text text-anchor="middle" x="807" y="-499.6" font-family="Times-Roman" font-size="8.00">b8c7</text>
</g>
<!-- 56 -->
<g id="node19" class="node">
<title>56</title>
<text text-anchor="start" x="814.5" y="-469" font-family="Helvetica" font-size="10.00">Val: +0.99</text>
<image xlink:href="/home/hl4291/chess_analysis/outputs/figures/minply15_maxply75/variants/cp_regen/trees/cp_regen_t1_tree_p90_assets/node_56.png" width="67px" height="67px" preserveAspectRatio="xMinYMin meet" x="803.5" y="-462"/>
</g>
<!-- 49&#45;&gt;56 -->
<g id="edge18" class="edge">
<title>49&#45;&gt;56</title>
<path fill="none" stroke="black" d="M866.09,-523.76C862.29,-512.62 858.15,-500.48 854.2,-488.9"/>
<polygon fill="black" stroke="black" points="857.48,-487.67 850.94,-479.33 850.86,-489.93 857.48,-487.67"/>
<text text-anchor="middle" x="870.5" y="-499.6" font-family="Times-Roman" font-size="8.00">d7e8</text>
</g>
<!-- 57 -->
<g id="node20" class="node">
<title>57</title>
<text text-anchor="start" x="903.5" y="-469" font-family="Helvetica" font-size="10.00">Val: +0.95</text>
<image xlink:href="/home/hl4291/chess_analysis/outputs/figures/minply15_maxply75/variants/cp_regen/trees/cp_regen_t1_tree_p90_assets/node_57.png" width="67px" height="67px" preserveAspectRatio="xMinYMin meet" x="892.5" y="-462"/>
</g>
<!-- 49&#45;&gt;57 -->
<g id="edge19" class="edge">
<title>49&#45;&gt;57</title>
<path fill="none" stroke="black" d="M895.23,-523.76C899.12,-512.62 903.36,-500.48 907.4,-488.9"/>
<polygon fill="black" stroke="black" points="910.74,-489.93 910.73,-479.33 904.13,-487.62 910.74,-489.93"/>
<text text-anchor="middle" x="914.5" y="-499.6" font-family="Times-Roman" font-size="8.00">e5d6</text>
</g>
<!-- 58 -->
<g id="node21" class="node">
<title>58</title>
<text text-anchor="start" x="992.5" y="-469" font-family="Helvetica" font-size="10.00">Val: +0.96</text>
<image xlink:href="/home/hl4291/chess_analysis/outputs/figures/minply15_maxply75/variants/cp_regen/trees/cp_regen_t1_tree_p90_assets/node_58.png" width="67px" height="67px" preserveAspectRatio="xMinYMin meet" x="981.5" y="-462"/>
</g>
<!-- 49&#45;&gt;58 -->
<g id="edge20" class="edge">
<title>49&#45;&gt;58</title>
<path fill="none" stroke="black" d="M916.06,-531.77C933.02,-515.44 953.46,-495.77 971.3,-478.58"/>
<polygon fill="black" stroke="black" points="974,-480.85 978.78,-471.39 969.14,-475.8 974,-480.85"/>
<text text-anchor="middle" x="962.5" y="-499.6" font-family="Times-Roman" font-size="8.00">h7h6</text>
</g>
<!-- 54 -->
<g id="node17" class="node">
<title>54</title>
<text text-anchor="start" x="1081.5" y="-469" font-family="Helvetica" font-size="10.00">Val: +0.97</text>
<image xlink:href="/home/hl4291/chess_analysis/outputs/figures/minply15_maxply75/variants/cp_regen/trees/cp_regen_t1_tree_p90_assets/node_54.png" width="67px" height="67px" preserveAspectRatio="xMinYMin meet" x="1070.5" y="-462"/>
</g>
<!-- 50&#45;&gt;54 -->
<g id="edge16" class="edge">
<title>50&#45;&gt;54</title>
<path fill="none" stroke="black" d="M1017.12,-528.34C1030.65,-514.03 1046.22,-497.57 1060.37,-482.6"/>
<polygon fill="black" stroke="black" points="1063.3,-484.6 1067.63,-474.93 1058.21,-479.79 1063.3,-484.6"/>
<text text-anchor="middle" x="1056.5" y="-499.6" font-family="Times-Roman" font-size="8.00">e5b2</text>
</g>
<!-- 61 -->
<g id="node22" class="node">
<title>61</title>
<text text-anchor="start" x="15" y="-338" font-family="Helvetica" font-size="10.00">Val: &#45;0.98</text>
<image xlink:href="/home/hl4291/chess_analysis/outputs/figures/minply15_maxply75/variants/cp_regen/trees/cp_regen_t1_tree_p90_assets/node_61.png" width="67px" height="67px" preserveAspectRatio="xMinYMin meet" x="2.5" y="-331"/>
</g>
<!-- 51&#45;&gt;61 -->
<g id="edge21" class="edge">
<title>51&#45;&gt;61</title>
<path fill="none" stroke="black" d="M95.36,-392.76C87.44,-381.29 78.79,-368.75 70.59,-356.86"/>
<polygon fill="black" stroke="black" points="73.27,-354.58 64.71,-348.33 67.51,-358.55 73.27,-354.58"/>
<text text-anchor="middle" x="93" y="-368.6" font-family="Times-Roman" font-size="8.00">f1e1</text>
</g>
<!-- 62 -->
<g id="node23" class="node">
<title>62</title>
<text text-anchor="start" x="104" y="-338" font-family="Helvetica" font-size="10.00">Val: &#45;0.98</text>
<image xlink:href="/home/hl4291/chess_analysis/outputs/figures/minply15_maxply75/variants/cp_regen/trees/cp_regen_t1_tree_p90_assets/node_62.png" width="67px" height="67px" preserveAspectRatio="xMinYMin meet" x="91.5" y="-331"/>
</g>
<!-- 51&#45;&gt;62 -->
<g id="edge22" class="edge">
<title>51&#45;&gt;62</title>
<path fill="none" stroke="black" d="M124.5,-392.76C124.5,-381.85 124.5,-369.96 124.5,-358.59"/>
<polygon fill="black" stroke="black" points="128,-358.33 124.5,-348.33 121,-358.33 128,-358.33"/>
<text text-anchor="middle" x="135" y="-368.6" font-family="Times-Roman" font-size="8.00">c1e1</text>
</g>
<!-- 80 -->
<g id="node38" class="node">
<title>80</title>
<text text-anchor="start" x="193" y="-338" font-family="Helvetica" font-size="10.00">Val: &#45;0.99</text>
<image xlink:href="/home/hl4291/chess_analysis/outputs/figures/minply15_maxply75/variants/cp_regen/trees/cp_regen_t1_tree_p90_assets/node_80.png" width="67px" height="67px" preserveAspectRatio="xMinYMin meet" x="180.5" y="-331"/>
</g>
<!-- 52&#45;&gt;80 -->
<g id="edge37" class="edge">
<title>52&#45;&gt;80</title>
<path fill="none" stroke="black" d="M243.09,-392.76C239.29,-381.62 235.15,-369.48 231.2,-357.9"/>
<polygon fill="black" stroke="black" points="234.48,-356.67 227.94,-348.33 227.86,-358.93 234.48,-356.67"/>
<text text-anchor="middle" x="246" y="-368.6" font-family="Times-Roman" font-size="8.00">f1e1</text>
</g>
<!-- 67 -->
<g id="node27" class="node">
<title>67</title>
<text text-anchor="start" x="282" y="-338" font-family="Helvetica" font-size="10.00">Val: &#45;0.98</text>
<image xlink:href="/home/hl4291/chess_analysis/outputs/figures/minply15_maxply75/variants/cp_regen/trees/cp_regen_t1_tree_p90_assets/node_67.png" width="67px" height="67px" preserveAspectRatio="xMinYMin meet" x="269.5" y="-331"/>
</g>
<!-- 53&#45;&gt;67 -->
<g id="edge26" class="edge">
<title>53&#45;&gt;67</title>
<path fill="none" stroke="black" d="M346.89,-392.76C341.13,-381.51 334.85,-369.23 328.87,-357.55"/>
<polygon fill="black" stroke="black" points="331.83,-355.64 324.16,-348.33 325.6,-358.83 331.83,-355.64"/>
<text text-anchor="middle" x="346" y="-368.6" font-family="Times-Roman" font-size="8.00">f3a3</text>
</g>
<!-- 68 -->
<g id="node28" class="node">
<title>68</title>
<text text-anchor="start" x="371" y="-338" font-family="Helvetica" font-size="10.00">Val: &#45;0.99</text>
<image xlink:href="/home/hl4291/chess_analysis/outputs/figures/minply15_maxply75/variants/cp_regen/trees/cp_regen_t1_tree_p90_assets/node_68.png" width="67px" height="67px" preserveAspectRatio="xMinYMin meet" x="358.5" y="-331"/>
</g>
<!-- 53&#45;&gt;68 -->
<g id="edge27" class="edge">
<title>53&#45;&gt;68</title>
<path fill="none" stroke="black" d="M376.03,-392.76C378,-381.74 380.14,-369.72 382.19,-358.24"/>
<polygon fill="black" stroke="black" points="385.64,-358.79 383.95,-348.33 378.75,-357.56 385.64,-358.79"/>
<text text-anchor="middle" x="390" y="-368.6" font-family="Times-Roman" font-size="8.00">f1e1</text>
</g>
<!-- 69 -->
<g id="node33" class="node">
<title>69</title>
<text text-anchor="start" x="460" y="-338" font-family="Helvetica" font-size="10.00">Val: &#45;0.95</text>
<image xlink:href="/home/hl4291/chess_analysis/outputs/figures/minply15_maxply75/variants/cp_regen/trees/cp_regen_t1_tree_p90_assets/node_69.png" width="67px" height="67px" preserveAspectRatio="xMinYMin meet" x="447.5" y="-331"/>
</g>
<!-- 53&#45;&gt;69 -->
<g id="edge32" class="edge">
<title>53&#45;&gt;69</title>
<path fill="none" stroke="black" d="M404.25,-393.83C414.95,-381.49 426.81,-367.84 437.91,-355.05"/>
<polygon fill="black" stroke="black" points="440.8,-357.07 444.71,-347.22 435.51,-352.48 440.8,-357.07"/>
<text text-anchor="middle" x="438.5" y="-368.6" font-family="Times-Roman" font-size="8.00">b2b4</text>
</g>
<!-- 63 -->
<g id="node24" class="node">
<title>63</title>
<text text-anchor="start" x="1083" y="-338" font-family="Helvetica" font-size="10.00">Val: &#45;0.98</text>
<image xlink:href="/home/hl4291/chess_analysis/outputs/figures/minply15_maxply75/variants/cp_regen/trees/cp_regen_t1_tree_p90_assets/node_63.png" width="67px" height="67px" preserveAspectRatio="xMinYMin meet" x="1070.5" y="-331"/>
</g>
<!-- 54&#45;&gt;63 -->
<g id="edge23" class="edge">
<title>54&#45;&gt;63</title>
<path fill="none" stroke="black" d="M1103.5,-392.76C1103.5,-381.85 1103.5,-369.96 1103.5,-358.59"/>
<polygon fill="black" stroke="black" points="1107,-358.33 1103.5,-348.33 1100,-358.33 1107,-358.33"/>
<text text-anchor="middle" x="1114" y="-368.6" font-family="Times-Roman" font-size="8.00">a6c5</text>
</g>
<!-- 64 -->
<g id="node25" class="node">
<title>64</title>
<text text-anchor="start" x="1198" y="-338" font-family="Helvetica" font-size="10.00">Val: &#45;0.96</text>
<image xlink:href="/home/hl4291/chess_analysis/outputs/figures/minply15_maxply75/variants/cp_regen/trees/cp_regen_t1_tree_p90_assets/node_64.png" width="67px" height="67px" preserveAspectRatio="xMinYMin meet" x="1185.5" y="-331"/>
</g>
<!-- 54&#45;&gt;64 -->
<g id="edge24" class="edge">
<title>54&#45;&gt;64</title>
<path fill="none" stroke="black" d="M1139.26,-394.89C1150.83,-381.91 1163.78,-367.38 1175.81,-353.89"/>
<polygon fill="black" stroke="black" points="1178.72,-355.88 1182.77,-346.08 1173.5,-351.22 1178.72,-355.88"/>
<text text-anchor="middle" x="1174.5" y="-368.6" font-family="Times-Roman" font-size="8.00">e1e2</text>
</g>
<!-- 74 -->
<g id="node35" class="node">
<title>74</title>
<text text-anchor="start" x="549" y="-338" font-family="Helvetica" font-size="10.00">Val: &#45;0.98</text>
<image xlink:href="/home/hl4291/chess_analysis/outputs/figures/minply15_maxply75/variants/cp_regen/trees/cp_regen_t1_tree_p90_assets/node_74.png" width="67px" height="67px" preserveAspectRatio="xMinYMin meet" x="536.5" y="-331"/>
</g>
<!-- 55&#45;&gt;74 -->
<g id="edge34" class="edge">
<title>55&#45;&gt;74</title>
<path fill="none" stroke="black" d="M667.94,-400.77C650.98,-384.44 630.54,-364.77 612.7,-347.58"/>
<polygon fill="black" stroke="black" points="614.86,-344.8 605.22,-340.39 610,-349.85 614.86,-344.8"/>
<text text-anchor="middle" x="651.5" y="-368.6" font-family="Times-Roman" font-size="8.00">b3b7</text>
</g>
<!-- 75 -->
<g id="node36" class="node">
<title>75</title>
<text text-anchor="start" x="638" y="-338" font-family="Helvetica" font-size="10.00">Val: &#45;0.98</text>
<image xlink:href="/home/hl4291/chess_analysis/outputs/figures/minply15_maxply75/variants/cp_regen/trees/cp_regen_t1_tree_p90_assets/node_75.png" width="67px" height="67px" preserveAspectRatio="xMinYMin meet" x="625.5" y="-331"/>
</g>
<!-- 55&#45;&gt;75 -->
<g id="edge35" class="edge">
<title>55&#45;&gt;75</title>
<path fill="none" stroke="black" d="M688.77,-392.76C684.88,-381.62 680.64,-369.48 676.6,-357.9"/>
<polygon fill="black" stroke="black" points="679.87,-356.62 673.27,-348.33 673.26,-358.93 679.87,-356.62"/>
<text text-anchor="middle" x="691" y="-368.6" font-family="Times-Roman" font-size="8.00">f1e1</text>
</g>
<!-- 76 -->
<g id="node37" class="node">
<title>76</title>
<text text-anchor="start" x="727" y="-338" font-family="Helvetica" font-size="10.00">Val: &#45;0.90</text>
<image xlink:href="/home/hl4291/chess_analysis/outputs/figures/minply15_maxply75/variants/cp_regen/trees/cp_regen_t1_tree_p90_assets/node_76.png" width="67px" height="67px" preserveAspectRatio="xMinYMin meet" x="714.5" y="-331"/>
</g>
<!-- 55&#45;&gt;76 -->
<g id="edge36" class="edge">
<title>55&#45;&gt;76</title>
<path fill="none" stroke="black" d="M717.91,-392.76C721.71,-381.62 725.85,-369.48 729.8,-357.9"/>
<polygon fill="black" stroke="black" points="733.14,-358.93 733.06,-348.33 726.52,-356.67 733.14,-358.93"/>
<text text-anchor="middle" x="736.5" y="-368.6" font-family="Times-Roman" font-size="8.00">c1c6</text>
</g>
<!-- 65 -->
<g id="node26" class="node">
<title>65</title>
<text text-anchor="start" x="816" y="-338" font-family="Helvetica" font-size="10.00">Val: &#45;0.99</text>
<image xlink:href="/home/hl4291/chess_analysis/outputs/figures/minply15_maxply75/variants/cp_regen/trees/cp_regen_t1_tree_p90_assets/node_65.png" width="67px" height="67px" preserveAspectRatio="xMinYMin meet" x="803.5" y="-331"/>
</g>
<!-- 56&#45;&gt;65 -->
<g id="edge25" class="edge">
<title>56&#45;&gt;65</title>
<path fill="none" stroke="black" d="M836.5,-392.76C836.5,-381.85 836.5,-369.96 836.5,-358.59"/>
<polygon fill="black" stroke="black" points="840,-358.33 836.5,-348.33 833,-358.33 840,-358.33"/>
<text text-anchor="middle" x="847.5" y="-368.6" font-family="Times-Roman" font-size="8.00">b3b7</text>
</g>
<!-- 123 -->
<g id="node40" class="node">
<title>123</title>
<text text-anchor="start" x="905" y="-338" font-family="Helvetica" font-size="10.00">Val: &#45;0.90</text>
<image xlink:href="/home/hl4291/chess_analysis/outputs/figures/minply15_maxply75/variants/cp_regen/trees/cp_regen_t1_tree_p90_assets/node_123.png" width="67px" height="67px" preserveAspectRatio="xMinYMin meet" x="892.5" y="-331"/>
</g>
<!-- 57&#45;&gt;123 -->
<g id="edge39" class="edge">
<title>57&#45;&gt;123</title>
<path fill="none" stroke="black" d="M925.5,-392.76C925.5,-381.85 925.5,-369.96 925.5,-358.59"/>
<polygon fill="black" stroke="black" points="929,-358.33 925.5,-348.33 922,-358.33 929,-358.33"/>
<text text-anchor="middle" x="935" y="-368.6" font-family="Times-Roman" font-size="8.00">f1d1</text>
</g>
<!-- 197 -->
<g id="node29" class="node">
<title>197</title>
<text text-anchor="start" x="994" y="-338" font-family="Helvetica" font-size="10.00">Val: &#45;0.93</text>
<image xlink:href="/home/hl4291/chess_analysis/outputs/figures/minply15_maxply75/variants/cp_regen/trees/cp_regen_t1_tree_p90_assets/node_197.png" width="67px" height="67px" preserveAspectRatio="xMinYMin meet" x="981.5" y="-331"/>
</g>
<!-- 58&#45;&gt;197 -->
<g id="edge28" class="edge">
<title>58&#45;&gt;197</title>
<path fill="none" stroke="black" d="M1014.5,-392.76C1014.5,-381.85 1014.5,-369.96 1014.5,-358.59"/>
<polygon fill="black" stroke="black" points="1018,-358.33 1014.5,-348.33 1011,-358.33 1018,-358.33"/>
<text text-anchor="middle" x="1024" y="-368.6" font-family="Times-Roman" font-size="8.00">f1e1</text>
</g>
<!-- 70 -->
<g id="node30" class="node">
<title>70</title>
<text text-anchor="start" x="825.5" y="-207" font-family="Helvetica" font-size="10.00">Val: +0.98</text>
<image xlink:href="/home/hl4291/chess_analysis/outputs/figures/minply15_maxply75/variants/cp_regen/trees/cp_regen_t1_tree_p90_assets/node_70.png" width="67px" height="67px" preserveAspectRatio="xMinYMin meet" x="814.5" y="-200"/>
</g>
<!-- 63&#45;&gt;70 -->
<g id="edge29" class="edge">
<title>63&#45;&gt;70</title>
<path fill="none" stroke="black" d="M1067.9,-268.03C1065.15,-265.88 1062.33,-263.84 1059.5,-262 1006.45,-227.56 937.53,-202.35 892.91,-188.18"/>
<polygon fill="black" stroke="black" points="893.81,-184.79 883.22,-185.15 891.73,-191.47 893.81,-184.79"/>
<text text-anchor="middle" x="1037.5" y="-237.6" font-family="Times-Roman" font-size="8.00">d7e8</text>
</g>
<!-- 71 -->
<g id="node31" class="node">
<title>71</title>
<text text-anchor="start" x="1048.5" y="-207" font-family="Helvetica" font-size="10.00">Val: +0.99</text>
<image xlink:href="/home/hl4291/chess_analysis/outputs/figures/minply15_maxply75/variants/cp_regen/trees/cp_regen_t1_tree_p90_assets/node_71.png" width="67px" height="67px" preserveAspectRatio="xMinYMin meet" x="1037.5" y="-200"/>
</g>
<!-- 63&#45;&gt;71 -->
<g id="edge30" class="edge">
<title>63&#45;&gt;71</title>
<path fill="none" stroke="black" d="M1092.69,-261.76C1089.87,-250.74 1086.8,-238.72 1083.86,-227.24"/>
<polygon fill="black" stroke="black" points="1087.2,-226.15 1081.33,-217.33 1080.42,-227.89 1087.2,-226.15"/>
<text text-anchor="middle" x="1098" y="-237.6" font-family="Times-Roman" font-size="8.00">d7c7</text>
</g>
<!-- 72 -->
<g id="node32" class="node">
<title>72</title>
<text text-anchor="start" x="1181.5" y="-207" font-family="Helvetica" font-size="10.00">Val: +0.96</text>
<image xlink:href="/home/hl4291/chess_analysis/outputs/figures/minply15_maxply75/variants/cp_regen/trees/cp_regen_t1_tree_p90_assets/node_72.png" width="67px" height="67px" preserveAspectRatio="xMinYMin meet" x="1170.5" y="-200"/>
</g>
<!-- 63&#45;&gt;72 -->
<g id="edge31" class="edge">
<title>63&#45;&gt;72</title>
<path fill="none" stroke="black" d="M1136.24,-261.76C1145.22,-250.18 1155.05,-237.5 1164.35,-225.51"/>
<polygon fill="black" stroke="black" points="1167.32,-227.38 1170.68,-217.33 1161.79,-223.09 1167.32,-227.38"/>
<text text-anchor="middle" x="1166.5" y="-237.6" font-family="Times-Roman" font-size="8.00">d7d6</text>
</g>
<!-- 87 -->
<g id="node39" class="node">
<title>87</title>
<text text-anchor="start" x="1314.5" y="-207" font-family="Helvetica" font-size="10.00">Val: +0.96</text>
<image xlink:href="/home/hl4291/chess_analysis/outputs/figures/minply15_maxply75/variants/cp_regen/trees/cp_regen_t1_tree_p90_assets/node_87.png" width="67px" height="67px" preserveAspectRatio="xMinYMin meet" x="1303.5" y="-200"/>
</g>
<!-- 64&#45;&gt;87 -->
<g id="edge38" class="edge">
<title>64&#45;&gt;87</title>
<path fill="none" stroke="black" d="M1254.22,-264.95C1266.7,-251.31 1280.83,-235.86 1293.82,-221.66"/>
<polygon fill="black" stroke="black" points="1296.73,-223.66 1300.9,-213.92 1291.57,-218.94 1296.73,-223.66"/>
<text text-anchor="middle" x="1291" y="-237.6" font-family="Times-Roman" font-size="8.00">b2c1</text>
</g>
<!-- 70&#45;&gt;159 -->
<g id="edge7" class="edge">
<title>70&#45;&gt;159</title>
<path fill="none" stroke="black" d="M818.36,-130.76C810.44,-119.29 801.79,-106.75 793.59,-94.86"/>
<polygon fill="black" stroke="black" points="796.27,-92.58 787.71,-86.33 790.51,-96.55 796.27,-92.58"/>
<text text-anchor="middle" x="816" y="-106.6" font-family="Times-Roman" font-size="8.00">c5e6</text>
</g>
<!-- 70&#45;&gt;161 -->
<g id="edge8" class="edge">
<title>70&#45;&gt;161</title>
<path fill="none" stroke="black" d="M847.5,-130.76C847.5,-119.85 847.5,-107.96 847.5,-96.59"/>
<polygon fill="black" stroke="black" points="851,-96.33 847.5,-86.33 844,-96.33 851,-96.33"/>
<text text-anchor="middle" x="858.5" y="-106.6" font-family="Times-Roman" font-size="8.00">e1e2</text>
</g>
<!-- 71&#45;&gt;280 -->
<g id="edge3" class="edge">
<title>71&#45;&gt;280</title>
<path fill="none" stroke="black" d="M1034.94,-138.77C1017.98,-122.44 997.54,-102.77 979.7,-85.58"/>
<polygon fill="black" stroke="black" points="981.86,-82.8 972.22,-78.39 977,-87.85 981.86,-82.8"/>
<text text-anchor="middle" x="1018.5" y="-106.6" font-family="Times-Roman" font-size="8.00">e1e2</text>
</g>
<!-- 71&#45;&gt;279 -->
<g id="edge5" class="edge">
<title>71&#45;&gt;279</title>
<path fill="none" stroke="black" d="M1055.77,-130.76C1051.88,-119.62 1047.64,-107.48 1043.6,-95.9"/>
<polygon fill="black" stroke="black" points="1046.87,-94.62 1040.27,-86.33 1040.26,-96.93 1046.87,-94.62"/>
<text text-anchor="middle" x="1059.5" y="-106.6" font-family="Times-Roman" font-size="8.00">e1e6</text>
</g>
<!-- 71&#45;&gt;284 -->
<g id="edge6" class="edge">
<title>71&#45;&gt;284</title>
<path fill="none" stroke="black" d="M1084.91,-130.76C1088.71,-119.62 1092.85,-107.48 1096.8,-95.9"/>
<polygon fill="black" stroke="black" points="1100.14,-96.93 1100.06,-86.33 1093.52,-94.67 1100.14,-96.93"/>
<text text-anchor="middle" x="1104" y="-106.6" font-family="Times-Roman" font-size="8.00">c1b1</text>
</g>
<!-- 72&#45;&gt;407 -->
<g id="edge2" class="edge">
<title>72&#45;&gt;407</title>
<path fill="none" stroke="black" d="M1203.5,-130.76C1203.5,-119.85 1203.5,-107.96 1203.5,-96.59"/>
<polygon fill="black" stroke="black" points="1207,-96.33 1203.5,-86.33 1200,-96.33 1207,-96.33"/>
<text text-anchor="middle" x="1214" y="-106.6" font-family="Times-Roman" font-size="8.00">c5e6</text>
</g>
<!-- 72&#45;&gt;409 -->
<g id="edge4" class="edge">
<title>72&#45;&gt;409</title>
<path fill="none" stroke="black" d="M1232.64,-130.76C1240.56,-119.29 1249.21,-106.75 1257.41,-94.86"/>
<polygon fill="black" stroke="black" points="1260.49,-96.55 1263.29,-86.33 1254.73,-92.58 1260.49,-96.55"/>
<text text-anchor="middle" x="1261.5" y="-106.6" font-family="Times-Roman" font-size="8.00">e1e2</text>
</g>
<!-- 586 -->
<g id="node34" class="node">
<title>586</title>
<text text-anchor="start" x="1361" y="-76" font-family="Helvetica" font-size="10.00">Val: &#45;0.98</text>
<image xlink:href="/home/hl4291/chess_analysis/outputs/figures/minply15_maxply75/variants/cp_regen/trees/cp_regen_t1_tree_p90_assets/node_586.png" width="67px" height="67px" preserveAspectRatio="xMinYMin meet" x="1348.5" y="-69"/>
</g>
<!-- 87&#45;&gt;586 -->
<g id="edge33" class="edge">
<title>87&#45;&gt;586</title>
<path fill="none" stroke="black" d="M1351.23,-130.76C1355.12,-119.62 1359.36,-107.48 1363.4,-95.9"/>
<polygon fill="black" stroke="black" points="1366.74,-96.93 1366.73,-86.33 1360.13,-94.62 1366.74,-96.93"/>
<text text-anchor="middle" x="1370" y="-106.6" font-family="Times-Roman" font-size="8.00">g5c1</text>
</g>
</g>
</svg>
